<svg xmlns="http://www.w3.org/2000/svg" width="363.894" height="110" viewBox="0 0 363.894 110">
  <g id="Group_13" data-name="Group 13" transform="translate(0 75.52)">
    <path id="Path_26" data-name="Path 26" d="M45.212-58.24v7.108C41.367-55.56,35.657-58.24,27.85-58.24,12.585-58.24,0-44.84,0-27.477S12.585,3.285,27.85,3.285c7.807,0,13.517-2.68,17.362-7.108V1.654H62.691V-58.24ZM29.889-13.261c-8.04,0-13.867-5.477-13.867-14.216s5.826-14.216,13.867-14.216,13.867,5.477,13.867,14.216S37.929-13.261,29.889-13.261Z" transform="translate(0 7.889)" fill="#fff"/>
    <path id="Path_27" data-name="Path 27" d="M116.094-58.24c-8.273,0-13.633,3.03-16.9,7.691-3.263-4.894-8.39-7.691-15.265-7.691-7.807,0-12.934,3.03-15.614,6.992V-58.24H50.84V1.654H68.319v-32.86c0-6.875,3.263-10.953,9.089-10.953,5.593,0,8.39,3.729,8.39,9.555V1.654h17.479v-32.86c0-6.875,3.263-10.953,9.089-10.953,5.593,0,8.39,3.729,8.39,9.555V1.654h17.479V-34.119C138.234-48.685,129.495-58.24,116.094-58.24Z" transform="translate(23.212 7.889)" fill="#fff"/>
    <path id="Path_28" data-name="Path 28" d="M146.959,3.285a30.539,30.539,0,0,0,30.879-30.763A30.539,30.539,0,0,0,146.959-58.24,30.539,30.539,0,0,0,116.08-27.477,30.539,30.539,0,0,0,146.959,3.285Zm0-17.013c-7.574,0-13.4-5.477-13.4-13.75s5.826-13.75,13.4-13.75,13.4,5.477,13.4,13.75S154.533-13.727,146.959-13.727Z" transform="translate(52.998 7.889)" fill="#fff"/>
    <path id="Path_29" data-name="Path 29" d="M209.319-58.24v7.574c-3.845-4.778-9.439-7.574-17.013-7.574-16.547,0-28.665,13.517-28.665,29.6S175.76.955,192.306.955c7.574,0,13.167-2.8,17.013-7.574v5.36c0,8.273-5.011,12.468-13.167,12.468H179.663V26.591h15.906c15.5,0,30.763-8.273,30.763-27.85V-58.24ZM193.763-15.126c-8.273,0-14.1-5.477-14.1-13.517s5.826-13.517,14.1-13.517,14.1,5.477,14.1,13.517S202.036-15.126,193.763-15.126Z" transform="translate(74.713 7.889)" fill="#fff"/>
    <path id="Path_30" data-name="Path 30" d="M214.651,9.544H232.13V-75.52H214.651Z" transform="translate(98.003)" fill="#fff"/>
    <path id="Path_31" data-name="Path 31" d="M245.7-9.06a11.14,11.14,0,0,0,11.07-11.07A11.14,11.14,0,0,0,245.7-31.2a11.14,11.14,0,0,0-11.07,11.07A11.14,11.14,0,0,0,245.7-9.06Z" transform="translate(107.125 20.235)" fill="#2ae3be"/>
  </g>
</svg>
