<?xml version="1.0" encoding="iso-8859-1"?>
<!-- Generator: Adobe Illustrator 15.0.0, SVG Export Plug-In . SVG Version: 6.00 Build 0)  -->
<!DOCTYPE svg PUBLIC "-//W3C//DTD SVG 1.1//EN" "http://www.w3.org/Graphics/SVG/1.1/DTD/svg11.dtd">
<svg version="1.1" id="Layer_1" xmlns="http://www.w3.org/2000/svg" xmlns:xlink="http://www.w3.org/1999/xlink" x="0px" y="0px"
	 width="400px" height="400px" viewBox="0 0 400 400" style="enable-background:new 0 0 400 400;" xml:space="preserve">
<g>
	<circle style="fill:#FFFFFF;" cx="350.208" cy="349.375" r="49.792"/>
	<path style="fill:#FFFFFF;" d="M348.54,249.791c27.498,0,49.792-22.293,49.792-49.791c0-109.995-89.172-199.166-199.166-199.166
		C89.168,0.834,0,90.005,0,200c0,90.939,60.953,167.643,144.233,191.489c17.449,4.995,35.878,7.677,54.933,7.677
		c0.064,0,0.131-0.003,0.197-0.003v-0.003c27.408-0.106,49.595-22.353,49.595-49.785c0-27.219-21.84-49.317-48.949-49.771v-0.044
		c-0.283,0.003-0.56,0.023-0.843,0.023c-54.999,0-99.583-44.587-99.583-99.583c0-16.132,3.86-31.355,10.67-44.832
		c16.407-32.472,50.048-54.751,88.913-54.751c54.997,0,99.583,44.587,99.583,99.583C298.749,227.498,321.04,249.791,348.54,249.791z
		"/>
</g>
</svg>
