<svg xmlns="http://www.w3.org/2000/svg" xmlns:xlink="http://www.w3.org/1999/xlink" width="16" height="16" viewBox="0 0 16 16">
  <defs>
    <clipPath id="clip-safari-pinned-tab">
      <rect width="16" height="16"/>
    </clipPath>
  </defs>
  <g id="safari-pinned-tab" clip-path="url(#clip-safari-pinned-tab)">
    <g id="Component_55_10" data-name="Component 55 – 10">
      <rect id="Rectangle_384" data-name="Rectangle 384" width="16" height="16" opacity="0"/>
      <g id="Group_859" data-name="Group 859" transform="translate(0 3)">
        <path id="Path_26" data-name="Path 26" d="M7.464-58.24v1.173A3.613,3.613,0,0,0,4.6-58.24,4.83,4.83,0,0,0,0-53.162a4.83,4.83,0,0,0,4.6,5.078,3.613,3.613,0,0,0,2.866-1.173v.9h2.885V-58.24Zm-2.53,7.425a2.2,2.2,0,0,1-2.289-2.347,2.2,2.2,0,0,1,2.289-2.347,2.2,2.2,0,0,1,2.289,2.347A2.2,2.2,0,0,1,4.934-50.815Z" transform="translate(0 58.24)"/>
        <path id="Path_31" data-name="Path 31" d="M236.458-27.545a1.839,1.839,0,0,0,1.827-1.827,1.839,1.839,0,0,0-1.827-1.827,1.839,1.839,0,0,0-1.827,1.827A1.839,1.839,0,0,0,236.458-27.545Z" transform="translate(-222.285 37.702)"/>
      </g>
    </g>
  </g>
</svg>
